<svg xmlns="http://www.w3.org/2000/svg" width="1600" height="1000" viewBox="0 0 1600 1000" role="img" aria-labelledby="title desc">
  <title id="title">Laser Metal Deposition Decision Map v1</title>
  <desc id="desc">Static decision map for LMD repair, cladding, SLM alternatives, machining, welding, replacement, and expert review boundaries.</desc>
  <defs>
    <linearGradient id="bg" x1="0" y1="0" x2="1" y2="1">
      <stop offset="0" stop-color="#05080c"/>
      <stop offset="0.55" stop-color="#07131a"/>
      <stop offset="1" stop-color="#120a05"/>
    </linearGradient>
    <linearGradient id="cyan" x1="0" y1="0" x2="1" y2="1">
      <stop offset="0" stop-color="#83f0ff"/>
      <stop offset="1" stop-color="#34ddff"/>
    </linearGradient>
    <linearGradient id="amber" x1="0" y1="0" x2="1" y2="1">
      <stop offset="0" stop-color="#ffd27a"/>
      <stop offset="1" stop-color="#ff6b35"/>
    </linearGradient>
    <filter id="glow" x="-20%" y="-20%" width="140%" height="140%">
      <feGaussianBlur stdDeviation="6" result="blur"/>
      <feMerge>
        <feMergeNode in="blur"/>
        <feMergeNode in="SourceGraphic"/>
      </feMerge>
    </filter>
    <style>
      .small{font:700 24px Inter,Arial,sans-serif;fill:#cbd8df}
      .label{font:900 34px Inter,Arial,sans-serif;fill:#fff}
      .title{font:900 54px Inter,Arial,sans-serif;fill:#fff}
      .mono{font:800 22px ui-monospace,SFMono-Regular,Menlo,monospace;fill:#8eeeff;letter-spacing:.08em}
      .node{fill:rgba(255,255,255,.045);stroke:#2e5260;stroke-width:2}
      .nodeStrong{fill:rgba(52,221,255,.085);stroke:#34ddff;stroke-width:2}
      .warn{fill:rgba(255,182,76,.08);stroke:#ffb64c;stroke-width:2}
      .line{stroke:#34ddff;stroke-width:4;stroke-linecap:round;opacity:.72}
      .line2{stroke:#ffb64c;stroke-width:4;stroke-linecap:round;opacity:.72}
    </style>
  </defs>
  <rect width="1600" height="1000" fill="url(#bg)"/>
  <path d="M0 140 H1600 M0 320 H1600 M0 500 H1600 M0 680 H1600 M0 860 H1600" stroke="#18313a" stroke-width="1" opacity=".45"/>
  <path d="M180 0 V1000 M420 0 V1000 M660 0 V1000 M900 0 V1000 M1140 0 V1000 M1380 0 V1000" stroke="#18313a" stroke-width="1" opacity=".45"/>
  <text x="80" y="90" class="mono">MANISH SHARMA LAB</text>
  <text x="80" y="150" class="title">Laser Metal Deposition Decision Map v1</text>
  <text x="80" y="195" class="small">Repair, cladding, large-part AM, SLM/LPBF alternatives, machining, welding, replacement review.</text>

  <rect x="80" y="260" width="300" height="140" rx="18" class="nodeStrong"/>
  <text x="110" y="315" class="label">Start</text>
  <text x="110" y="360" class="small">Damaged or new?</text>

  <rect x="500" y="230" width="330" height="120" rx="18" class="node"/>
  <text x="530" y="285" class="label">Damaged</text>
  <text x="530" y="325" class="small">Repair, cladding, welding, replacement</text>

  <rect x="500" y="390" width="330" height="120" rx="18" class="node"/>
  <text x="530" y="445" class="label">New part</text>
  <text x="530" y="485" class="small">SLM, CNC, LMD build-up, hybrid route</text>

  <path d="M380 315 C430 290 450 290 500 290" class="line" filter="url(#glow)"/>
  <path d="M380 345 C430 430 450 450 500 450" class="line" filter="url(#glow)"/>

  <rect x="940" y="150" width="430" height="118" rx="18" class="nodeStrong"/>
  <text x="970" y="205" class="label">LMD repair</text>
  <text x="970" y="245" class="small">Large + local damage + post-machining</text>

  <rect x="940" y="300" width="430" height="118" rx="18" class="nodeStrong"/>
  <text x="970" y="355" class="label">Laser cladding</text>
  <text x="970" y="395" class="small">Wear, corrosion, heat, surface function</text>

  <rect x="940" y="450" width="430" height="118" rx="18" class="node"/>
  <text x="970" y="505" class="label">SLM / LPBF</text>
  <text x="970" y="545" class="small">Small, complex, internal channels</text>

  <rect x="940" y="600" width="430" height="118" rx="18" class="node"/>
  <text x="970" y="655" class="label">CNC / welding / replace</text>
  <text x="970" y="695" class="small">When LMD is not the first route</text>

  <path d="M830 290 C880 240 890 220 940 210" class="line"/>
  <path d="M830 315 C885 340 895 355 940 360" class="line"/>
  <path d="M830 450 C880 470 900 500 940 510" class="line"/>
  <path d="M830 485 C880 560 900 630 940 660" class="line2"/>

  <rect x="170" y="650" width="1260" height="170" rx="22" class="warn"/>
  <text x="210" y="710" class="label">Before any recommendation hardens</text>
  <text x="210" y="755" class="small">Collect material grade, CAD/drawing, damage depth, operating conditions, tolerance, photos, and inspection requirement.</text>
  <text x="210" y="795" class="small">Preliminary decision-support only. Expert review decides feasibility; inspection decides evidence.</text>
  <text x="80" y="930" class="mono">CANONICAL: https://manish-sharma-ai.github.io/decision-map</text>
</svg>
