<svg xmlns="http://www.w3.org/2000/svg" viewBox="0 0 256 256" role="img" aria-label="Manish Sharma Lab laser-path mark">
  <defs>
    <linearGradient id="bg" x1="36" y1="24" x2="220" y2="232" gradientUnits="userSpaceOnUse">
      <stop offset="0" stop-color="#101820"/>
      <stop offset="0.55" stop-color="#071017"/>
      <stop offset="1" stop-color="#030506"/>
    </linearGradient>
    <linearGradient id="edge" x1="34" y1="28" x2="222" y2="224" gradientUnits="userSpaceOnUse">
      <stop offset="0" stop-color="#83f0ff" stop-opacity="0.52"/>
      <stop offset="0.58" stop-color="#ffffff" stop-opacity="0.12"/>
      <stop offset="1" stop-color="#ffd27a" stop-opacity="0.36"/>
    </linearGradient>
    <linearGradient id="beam" x1="67" y1="43" x2="132" y2="130" gradientUnits="userSpaceOnUse">
      <stop offset="0" stop-color="#83f0ff" stop-opacity="0.22"/>
      <stop offset="0.62" stop-color="#34ddff"/>
      <stop offset="1" stop-color="#ffd27a"/>
    </linearGradient>
    <linearGradient id="track" x1="50" y1="178" x2="208" y2="118" gradientUnits="userSpaceOnUse">
      <stop offset="0" stop-color="#647782"/>
      <stop offset="0.48" stop-color="#d8faff"/>
      <stop offset="1" stop-color="#34ddff"/>
    </linearGradient>
    <radialGradient id="focus" cx="128" cy="128" r="48" gradientUnits="userSpaceOnUse">
      <stop offset="0" stop-color="#fff3c4"/>
      <stop offset="0.36" stop-color="#ffd27a"/>
      <stop offset="1" stop-color="#ff6b35" stop-opacity="0"/>
    </radialGradient>
  </defs>
  <rect x="16" y="16" width="224" height="224" rx="54" fill="#020304"/>
  <rect x="24" y="24" width="208" height="208" rx="46" fill="url(#bg)" stroke="url(#edge)" stroke-width="2"/>
  <path d="M66 45 L128 128" fill="none" stroke="url(#beam)" stroke-width="13" stroke-linecap="round"/>
  <circle cx="128" cy="128" r="48" fill="url(#focus)"/>
  <circle cx="128" cy="128" r="14" fill="#ffd27a"/>
  <path d="M51 176 C90 151 126 154 164 136 C181 128 194 116 207 104" fill="none" stroke="url(#track)" stroke-width="13" stroke-linecap="round"/>
  <path d="M151 101 C170 73 194 63 214 52" fill="none" stroke="#83f0ff" stroke-width="7" stroke-linecap="round" opacity="0.76"/>
  <circle cx="214" cy="52" r="9" fill="#83f0ff"/>
</svg>
