<svg xmlns="http://www.w3.org/2000/svg" viewBox="0 0 1200 630">
  <defs>
    <linearGradient id="bg" x1="0" x2="1" y1="0" y2="1">
      <stop offset="0" stop-color="#050608"/>
      <stop offset=".55" stop-color="#0d1218"/>
      <stop offset="1" stop-color="#050608"/>
    </linearGradient>
    <radialGradient id="glow" cx=".72" cy=".42" r=".42">
      <stop offset="0" stop-color="#33d6ff" stop-opacity=".34"/>
      <stop offset="1" stop-color="#33d6ff" stop-opacity="0"/>
    </radialGradient>
  </defs>
  <rect width="1200" height="630" fill="url(#bg)"/>
  <rect width="1200" height="630" fill="url(#glow)"/>
  <g opacity=".17" stroke="#9cc9d9">
    <path d="M0 120h1200M0 240h1200M0 360h1200M0 480h1200"/>
    <path d="M120 0v630M240 0v630M360 0v630M480 0v630M600 0v630M720 0v630M840 0v630M960 0v630M1080 0v630"/>
  </g>
  <path d="M700 120l-150 210" stroke="#ff4d2e" stroke-width="8" stroke-linecap="round"/>
  <path d="M230 420c150-60 250-20 360 20s220 65 390-10" fill="none" stroke="#33d6ff" stroke-width="16" stroke-linecap="round"/>
  <circle cx="550" cy="330" r="62" fill="#ff4d2e" opacity=".28"/>
  <circle cx="550" cy="330" r="30" fill="#ffb547" opacity=".84"/>
  <text x="86" y="168" fill="#9cc9d9" font-family="monospace" font-size="26">Manish Sharma Lab</text>
  <text x="84" y="268" fill="#ffffff" font-family="Inter, Arial, sans-serif" font-size="76" font-weight="900">AI for Laser</text>
  <text x="84" y="354" fill="#ffffff" font-family="Inter, Arial, sans-serif" font-size="76" font-weight="900">Metal Deposition.</text>
  <text x="88" y="498" fill="#c7d7df" font-family="Inter, Arial, sans-serif" font-size="30">Frameworks · Tools · Lab notes · Agent Pack</text>
</svg>
