<svg xmlns="http://www.w3.org/2000/svg" viewBox="0 0 1200 630">
  <defs>
    <linearGradient id="bg" x1="0" x2="1" y1="0" y2="1">
      <stop offset="0" stop-color="#050608"/>
      <stop offset="0.48" stop-color="#0a1118"/>
      <stop offset="1" stop-color="#050608"/>
    </linearGradient>
    <radialGradient id="cyanGlow" cx="0.69" cy="0.34" r="0.52">
      <stop offset="0" stop-color="#33d6ff" stop-opacity="0.32"/>
      <stop offset="0.48" stop-color="#2f80ff" stop-opacity="0.12"/>
      <stop offset="1" stop-color="#33d6ff" stop-opacity="0"/>
    </radialGradient>
    <radialGradient id="laserGlow" cx="0.73" cy="0.52" r="0.28">
      <stop offset="0" stop-color="#ff4d2e" stop-opacity="0.32"/>
      <stop offset="1" stop-color="#ff4d2e" stop-opacity="0"/>
    </radialGradient>
    <linearGradient id="beam" x1="0" x2="1" y1="0" y2="1">
      <stop offset="0" stop-color="#ff4d2e" stop-opacity="0.16"/>
      <stop offset="0.62" stop-color="#ff4d2e" stop-opacity="0.94"/>
      <stop offset="1" stop-color="#ffb547" stop-opacity="0.96"/>
    </linearGradient>
    <linearGradient id="bead" x1="0" x2="1">
      <stop offset="0" stop-color="#384653"/>
      <stop offset="0.55" stop-color="#7d95a4"/>
      <stop offset="1" stop-color="#33d6ff"/>
    </linearGradient>
    <radialGradient id="melt">
      <stop offset="0" stop-color="#fff4c8" stop-opacity="1"/>
      <stop offset="0.32" stop-color="#ffb547" stop-opacity="0.96"/>
      <stop offset="0.7" stop-color="#ff4d2e" stop-opacity="0.5"/>
      <stop offset="1" stop-color="#ff4d2e" stop-opacity="0"/>
    </radialGradient>
    <filter id="glow" x="-80%" y="-80%" width="260%" height="260%">
      <feGaussianBlur stdDeviation="8" result="blur"/>
      <feMerge>
        <feMergeNode in="blur"/>
        <feMergeNode in="SourceGraphic"/>
      </feMerge>
    </filter>
    <clipPath id="portraitClip">
      <rect x="862" y="116" width="214" height="250" rx="22"/>
    </clipPath>
  </defs>
  <rect width="1200" height="630" fill="url(#bg)"/>
  <rect width="1200" height="630" fill="url(#cyanGlow)"/>
  <rect width="1200" height="630" fill="url(#laserGlow)"/>
  <g opacity="0.16" stroke="#9cc9d9" stroke-width="1">
    <path d="M60 0v630M140 0v630M220 0v630M300 0v630M380 0v630M460 0v630M540 0v630M620 0v630M700 0v630M780 0v630M860 0v630M940 0v630M1020 0v630M1100 0v630"/>
    <path d="M0 70h1200M0 150h1200M0 230h1200M0 310h1200M0 390h1200M0 470h1200M0 550h1200"/>
  </g>
  <rect x="46" y="42" width="1108" height="546" rx="34" fill="none" stroke="#9cc9d9" stroke-opacity="0.18"/>
  <g transform="translate(82 74)">
    <image href="brand/manish-sharma-lab-mark.svg" x="-1" y="-1" width="56" height="56"/>
    <text x="72" y="23" fill="#ffffff" font-family="Inter, Arial, sans-serif" font-size="22" font-weight="800">Manish Sharma Lab</text>
    <text x="72" y="47" fill="#9bb0bd" font-family="JetBrains Mono, Menlo, monospace" font-size="13" letter-spacing="2">INDUSTRIAL AI LAB</text>
  </g>
  <g transform="translate(82 166)">
    <text x="0" y="0" fill="#9bb0bd" font-family="JetBrains Mono, Menlo, monospace" font-size="19" letter-spacing="2">MANISH SHARMA - EXAFUSE, GERMANY</text>
    <text x="0" y="82" fill="#ffffff" font-family="Inter, Arial, sans-serif" font-size="68" font-weight="900">Industrial AI for</text>
    <text x="0" y="160" fill="#dffbff" font-family="Inter, Arial, sans-serif" font-size="68" font-weight="900">decisions you verify.</text>
    <text x="0" y="228" fill="#c7d7df" font-family="Inter, Arial, sans-serif" font-size="27" font-weight="650">Grounded in public LMD / DED work.</text>
  </g>
  <g transform="translate(82 500)">
    <rect x="0" y="0" width="170" height="38" rx="9" fill="#33d6ff" fill-opacity="0.11" stroke="#33d6ff" stroke-opacity="0.34"/>
    <text x="18" y="25" fill="#dffbff" font-family="Inter, Arial, sans-serif" font-size="16" font-weight="800">LMD / DED</text>
    <rect x="184" y="0" width="198" height="38" rx="9" fill="#ffffff" fill-opacity="0.045" stroke="#9cc9d9" stroke-opacity="0.22"/>
    <text x="202" y="25" fill="#edf7fb" font-family="Inter, Arial, sans-serif" font-size="16" font-weight="800">Quality evidence</text>
    <rect x="396" y="0" width="172" height="38" rx="9" fill="#ff4d2e" fill-opacity="0.12" stroke="#ffb547" stroke-opacity="0.34"/>
    <text x="414" y="25" fill="#fff6ef" font-family="Inter, Arial, sans-serif" font-size="16" font-weight="800">Agent-ready</text>
  </g>
  <g transform="translate(666 336)">
    <path d="M0 92c86-34 146-10 212 14s130 34 228-16" fill="none" stroke="#1d2934" stroke-width="56" stroke-linecap="round" opacity="0.9"/>
    <path d="M2 91c86-34 146-10 212 14s130 34 228-16" fill="none" stroke="url(#bead)" stroke-width="16" stroke-linecap="round" opacity="0.9"/>
    <line x1="130" y1="-204" x2="266" y2="46" stroke="#ff4d2e" stroke-opacity="0.18" stroke-width="28" stroke-linecap="round"/>
    <line x1="130" y1="-204" x2="266" y2="46" stroke="url(#beam)" stroke-width="5" stroke-linecap="round" filter="url(#glow)"/>
    <circle cx="266" cy="46" r="58" fill="url(#melt)" filter="url(#glow)"/>
    <ellipse cx="266" cy="51" rx="40" ry="14" fill="#fff3c4" opacity="0.5"/>
  </g>
  <g>
    <rect x="840" y="94" width="258" height="304" rx="28" fill="#0a1016" fill-opacity="0.78" stroke="#9cc9d9" stroke-opacity="0.18"/>
    <image href="images/manish-sharma-profile.webp" x="814" y="116" width="318" height="250" preserveAspectRatio="xMidYMid slice" clip-path="url(#portraitClip)"/>
    <rect x="862" y="116" width="214" height="250" rx="22" fill="none" stroke="#ffffff" stroke-opacity="0.16"/>
    <rect x="862" y="276" width="214" height="90" rx="0" fill="#000000" fill-opacity="0.48"/>
    <text x="884" y="322" fill="#ffffff" font-family="Inter, Arial, sans-serif" font-size="22" font-weight="900">Manish Sharma</text>
    <text x="884" y="348" fill="#9bf0ff" font-family="Inter, Arial, sans-serif" font-size="14" font-weight="800">Industrial AI &amp; Decision Systems</text>
  </g>
  <g transform="translate(862 434)">
    <rect x="0" y="0" width="236" height="76" rx="16" fill="#071018" fill-opacity="0.82" stroke="#9cc9d9" stroke-opacity="0.2"/>
    <text x="18" y="29" fill="#9bb0bd" font-family="JetBrains Mono, Menlo, monospace" font-size="13">CANONICAL SITE</text>
    <text x="18" y="56" fill="#ffffff" font-family="Inter, Arial, sans-serif" font-size="18" font-weight="800">manish-sharma-ai.github.io</text>
  </g>
</svg>
